<svg xmlns="http://www.w3.org/2000/svg" width="337.302" height="205.563" viewBox="0 0 337.302 205.563"><defs><style>.a,.b{fill:#fff;font-family:Alata-Regular, Alata;letter-spacing:0.1em;}.a{font-size:22px;}.b{font-size:16px;}.c{font-size:30px;}.d{fill:#fdc500;}.e{opacity:0.199;}.f{opacity:0.544;}.g{fill:#cbcad8;}</style></defs><g transform="translate(-13.087 -340.899)"><text class="a" transform="translate(67 364.899)"><tspan x="0" y="0">NOOR INAYAT-KHAN</tspan></text><text class="b" transform="translate(189 472.462)"><tspan x="-91.917" y="0">A </tspan><tspan class="c" y="0">WOMAN</tspan><tspan y="0" xml:space="preserve"> OF</tspan><tspan class="c"><tspan x="-117.6" y="33">CONSPICUOUS</tspan><tspan x="-77.835" y="66">COURAGE</tspan></tspan></text><rect class="d" width="44" height="4" transform="translate(167 428)"/><g transform="matrix(0.999, 0.035, -0.035, 0.999, 66.989, 9.601)"><g class="e" transform="translate(-40.718 380.329) rotate(-5)"><path d="M91.208,53.218a7.113,7.113,0,0,1-1.8-.536,5.03,5.03,0,0,1-1.84-1.532A22.386,22.386,0,0,0,85.4,48.735a8.511,8.511,0,0,1-.8-1.39.792.792,0,0,0-.133-.236,4.188,4.188,0,0,1-1-1.641A4.241,4.241,0,0,0,82.025,44.1c-1.33-.949-2.684-1.879-4.083-2.753a22.862,22.862,0,0,0-2.112-.971c-.593-.289-1.153-.626-1.736-.929a15.725,15.725,0,0,0-1.447-.71c-1.5-.6-3.032-1.152-4.53-1.761a4.593,4.593,0,0,1-.915-.656l.244-.308c2.441,1.183,5.107,1.946,7.5,3.242,2.308,1.25,4.72,2.362,7.2,3.589-.024-.223,0-.333-.048-.386a7,7,0,0,1-1.477-3.448,10.154,10.154,0,0,0-.8-1.7c-.008-.017-.06-.037-.059-.038.372-.5-.294-.783-.348-1.2-.171-1.324-.449-2.641-.533-3.969a24.358,24.358,0,0,1,.113-3.5c.052-.644.27-1.277.382-1.919.024-.137-.1-.289-.138-.437a2.42,2.42,0,0,1-.137-.787c.137-1.126.316-2.248.48-3.371l-.21-.111c-.4.206-.8.4-1.193.619a15.873,15.873,0,0,1-4.882,1.759,3.941,3.941,0,0,1-3.235-1.251,1.721,1.721,0,0,0-1.675-.225,6.5,6.5,0,0,1-2.8,1.141,9.725,9.725,0,0,1-3.744.64A1.959,1.959,0,0,1,60.055,23.6c-.5-.951-.725-.994-1.779-.5-.839.395-1.79.631-2.585,1.074a10.778,10.778,0,0,1-3.689,1,3.047,3.047,0,0,1-3.367-1.324,15.278,15.278,0,0,1-2.195.9,17.828,17.828,0,0,1-4.19.741c-.9,0-2.159-.052-2.568-1.268a8.048,8.048,0,0,0-1.463-2.176,1.049,1.049,0,0,0-.836-.267c-1.092.3-2.171.655-3.223,1.051-1.215.458-2.374,1.028-3.6,1.458a19.72,19.72,0,0,1-2.762.683c-.505.1-1.448-.667-1.77-1.258a9,9,0,0,0-1.113-1.711,1.426,1.426,0,0,0-1.1-.356c-1.025.245-2,.638-3.008.942-.539.162-1.115.235-1.659.389-.871.247-1.71.589-2.6.781-2.047.444-4.064.846-6.2.076a36.98,36.98,0,0,0-3.779-.668c-1.6-.384-3.307-.617-4.518-1.737C1.381,20.807.716,20.169.074,19.517c-.092-.093-.1-.394-.019-.438a7.054,7.054,0,0,1,1.711-.821,1.683,1.683,0,0,1,1.631.569,17.583,17.583,0,0,0,3.429,2.637,5.212,5.212,0,0,0,4.858.46,21.013,21.013,0,0,1,2.061-.817,8.864,8.864,0,0,0,4.218-3.157,17.981,17.981,0,0,0,2.316-3.765,13.464,13.464,0,0,0,.682-3.113,9.976,9.976,0,0,0-.268-4.621c-.2-.7-.812-1.322-.958-2.021a3.221,3.221,0,0,0-1.268-1.646,6.461,6.461,0,0,0-4.829-1.6c-1.662.1-3.338.053-4.993.2A3.746,3.746,0,0,0,7,2.132c-1.339.926-1.44,1.676-.607,2.988a10.163,10.163,0,0,0,4.18,3.314,12.237,12.237,0,0,0,1.268.574,11.721,11.721,0,0,0,1.611.521,1.274,1.274,0,0,1,1.2,1.432c-.59-.125-1.133-.283-1.692-.347a2.769,2.769,0,0,1-1.9-.791c-.251-.275-.807-.349-1.224-.517A14.78,14.78,0,0,1,6.205,6.659a4.745,4.745,0,0,1-1.473-2.37C4.218,2.884,5.369,1.365,7.172.764A18.641,18.641,0,0,1,13.463.006,6.684,6.684,0,0,1,15.905.33c1.359.594,2.945.9,3.833,2.189a12.953,12.953,0,0,1,2.142,3.5,10.468,10.468,0,0,1,.443,3.171,24.039,24.039,0,0,1-.576,4.909,10.393,10.393,0,0,1-1.637,3.377,17.22,17.22,0,0,1-2.872,3.13,11.135,11.135,0,0,1-2.647,1.383c-.72.326-1.493.566-2.242.844l.03.19a25.052,25.052,0,0,0,2.793-.257,20.9,20.9,0,0,0,4.261-1.118c1.159-.511,2.374-.826,3.541-1.264,1.338-.5,2.07-.453,2.856.561a17.623,17.623,0,0,0,1.759,1.965,1.3,1.3,0,0,0,1.675.221,26.939,26.939,0,0,1,3.175-1.242c1.153-.416,2.314-.817,3.488-1.189A13.742,13.742,0,0,1,38,20.189a1.046,1.046,0,0,1,1.2.475c.409.786.892,1.545,1.333,2.32a2.912,2.912,0,0,0,3.25,1.13A22.236,22.236,0,0,0,46.5,22.99c.234-.1.5-.147.73-.247,1.17-.5,2.348-1,3.492-1.538.275-.13.377-.539.652-.65,1.281-.514,2.347-1.416,3.953-1.357A21.667,21.667,0,0,0,58.4,18.85a13.211,13.211,0,0,1,1.7-.1,1.253,1.253,0,0,1,.834.258,7.6,7.6,0,0,1,.968,1.763c.192.533-.083.955-.844.978.318,1.582,1.667,2.063,3.4,1.344s3.5-1.354,5.282-1.954c1.252-.421,1.954.014,2.051,1.146.081.955.191.893,1.264.8a11.694,11.694,0,0,0,3.985-1.475,22.162,22.162,0,0,0,2.981-2.1,2.274,2.274,0,0,1,1.076-.428c.6-.032.844.274.68.813-.277.9-.516,1.816-.747,2.728a3.128,3.128,0,0,0-.008.706l-.207.086c-.146,1.071-.277,2.036-.409,3a16.619,16.619,0,0,0-.268,2.059,42.337,42.337,0,0,0,.11,4.47,20.641,20.641,0,0,0,.767,4.34,57.922,57.922,0,0,0,2.218,5.389A8.3,8.3,0,0,0,84.3,44.593a16.941,16.941,0,0,0,1.919,1.875c.85.763,1.968,1.3,2.542,2.3a3.47,3.47,0,0,0,.768.7c.075.066.2.106.242.182.485.814.979,1.624,1.424,2.453a3.288,3.288,0,0,1,.205.86ZM50.35,23.548l.2.224a5.619,5.619,0,0,0,1.087.129c.6-.043,1.2-.166,1.791-.262a2.137,2.137,0,0,0,.519-.125q1.585-.705,3.159-1.431c.952-.44,1.9-.892,2.884-1.359a3.347,3.347,0,0,0-2.7-.378c-1.994.766-3.984,1.542-5.946,2.365A4.194,4.194,0,0,0,50.35,23.548Zm-45.5-1.766c-.107-.222-.121-.326-.19-.381-.645-.523-1.291-1.045-1.958-1.547a1.094,1.094,0,0,0-.612-.229c-.119,0-.34.255-.322.374a.827.827,0,0,0,.347.539c.616.376,1.262.716,1.916,1.044A4.379,4.379,0,0,0,4.852,21.782ZM86.179,47.659l-.3.191,2.462,2.76.281-.181A8.113,8.113,0,0,0,86.179,47.659Z" transform="translate(132.172 3.289)"/><path d="M63.625,10.46l.074.1c-1.075.789-2.12,1.591-3.2,2.339s-2.245,1.429-3.335,2.191c-1.218.852-2.408,1.744-3.585,2.652-1.7,1.311-3.437,2.583-5.049,4-1.962,1.722-3.832,3.551-5.7,5.381-.794.779-1.478,1.672-2.2,2.525a1.738,1.738,0,0,1-2.68-.272,9.106,9.106,0,0,1-1.182-5.7c.171-1.978.035-3.98.088-5.97.033-1.226.227-2.449.24-3.675a21.928,21.928,0,0,0-.337-3.972c-.181.292-.381.574-.539.877-.525,1.008-.963,2.068-1.565,3.027-1.217,1.94-2.452,3.876-3.813,5.714a28.362,28.362,0,0,1-2.672,2.739c-.737.754-1.418,1.566-2.2,2.274-.829.754-1.74,1.42-2.62,2.117-.457.362-.937.7-1.39,1.063-1.488,1.207-2.938,2.464-4.463,3.623a18.247,18.247,0,0,1-2.769,1.7,34.373,34.373,0,0,1-4.652,2.128,28.662,28.662,0,0,1-4.42.824A11.342,11.342,0,0,1,4,36.28c-1.3.019-2.6.006-3.845.006-.412-1.212-.006-1.758,1.109-1.6a11.742,11.742,0,0,0,5.08-.448c1.326-.395,2.742-.509,4.043-.962,1.06-.368,2.264-.532,3.071-1.483a2.655,2.655,0,0,1,.68-.422c.931-.564,1.888-1.091,2.785-1.706.628-.43,1.164-.992,1.759-1.473,1.194-.967,2.409-1.907,3.6-2.88,1.351-1.107,2.74-2.178,4.006-3.377,1.214-1.15,2.209-2.539,3.459-3.643.918-.811,1.194-2.014,2.061-2.8a4.077,4.077,0,0,0,1.2-2c.071-.256.4-.432.6-.662a3.507,3.507,0,0,0,.543-.74q.836-1.823,1.616-3.672c.276-.657.508-1.334.734-2.011q.651-1.958,1.264-3.928c.069-.222.013-.48.073-.707.112-.428.173-1.1.756-.91a1.017,1.017,0,0,1,.844,1.16c-.288,1.577-.538,3.166-.7,4.76-.126,1.252-.078,2.52-.136,3.78-.1,2.127-.25,4.253-.327,6.381-.064,1.782-.047,3.567-.079,5.351-.014.8-.09,1.6-.082,2.406a9.338,9.338,0,0,0,.181,1.519,5.823,5.823,0,0,0,.322,1.224,1.868,1.868,0,0,0,.591.794c.086.06.5-.223.668-.427.615-.744,1.148-1.558,1.79-2.275.57-.636,1.242-1.182,1.873-1.764,1.613-1.489,3.184-3.029,4.856-4.449,1.448-1.229,2.98-2.365,4.533-3.461a28.675,28.675,0,0,0,3.825-2.764,18.782,18.782,0,0,1,2.639-1.746c1.077-.742,2.1-1.561,3.192-2.285.8-.533,1.662-.979,2.507-1.442,1.248-.683,2.5-1.367,3.763-2.014.844-.431,1.742-.759,2.579-1.2,1.452-.769,2.858-1.626,4.316-2.384A40.433,40.433,0,0,1,79.989.03c.388-.148,1.017.282,1.5.516a1.087,1.087,0,0,1-.2.764,9.963,9.963,0,0,1-1.3.583c-.666.332-1.31.708-1.972,1.049-.471.243-.955.461-1.436.686q-1.142.537-2.287,1.069c-1.165.542-2.35,1.045-3.49,1.634A33.866,33.866,0,0,0,67.845,8.06c-.833.543-1.525,1.308-2.615,1.392-.224.017-.419.316-.644.458C64.275,10.106,63.948,10.277,63.625,10.46Z" transform="translate(0 1.248)"/><path d="M10.2,10.17c1.237-.628,2.507-1.2,3.7-1.9a23.232,23.232,0,0,0,4.6-3.744c.363-.362.541-.893,1.184-.779a1.126,1.126,0,0,1,.44.158c.641.449,1.252.943,1.909,1.365a4,4,0,0,1,1.824,2.869,1.044,1.044,0,0,0,.712.949,3.625,3.625,0,0,0,2.68.181c1.449-.508,2.964-.83,4.4-1.377S34.427,6.6,35.828,5.984c1.063-.469,2.153-.873,3.23-1.31a.81.81,0,0,0,.277-.166c1.19-1.229,2.78-1.372,4.326-1.471a2.813,2.813,0,0,1,2.615,1.091c.347.556.172,1.443.214,2.182.007.126-.1.255-.11.387a.8.8,0,0,1-1.007.784,1.71,1.71,0,0,1-.878-1,5.13,5.13,0,0,1-.033-1.543C42.6,5.49,40.909,5.961,39.244,6.5a2.814,2.814,0,0,0-1.282,2.49c.1.475.421.777.876.574,1.22-.543,2.625-.682,3.619-1.752a2.316,2.316,0,0,1,1.335-.524.967.967,0,0,1,.8.445c.657,1.6,1.318,2.132,2.979,2.185a15.178,15.178,0,0,0,2.891-.011,13.545,13.545,0,0,0,3-.931c1.457-.61,2.877-1.31,4.295-2.007,1.19-.584,2.343-1.244,3.536-1.82.6-.288,1.254-.445,1.87-.7a22.631,22.631,0,0,1,5.377-1.578c.538-.075.985-.249,1.511.291-1.032.467-2.009.923-3,1.353-1.187.517-2.382,1.017-3.579,1.511a3.267,3.267,0,0,1-.625.125c-.184.036-.448.007-.539.118-.863,1.059-2.181,1.428-3.293,2.048-1.741.97-3.745,1.46-5.515,2.388-2.292,1.2-4.713.935-7.1.891a2.527,2.527,0,0,1-2.261-1.287c-.2-.389-.482-.756-1.129-.466-1.078.484-2.228.8-3.332,1.234a2.337,2.337,0,0,1-3.4-1.957c-.053-.424-.1-.849-.161-1.343a21.141,21.141,0,0,0-2.064,1,18.985,18.985,0,0,1-3.6,1.312c-.951.315-1.9.648-2.877.871a5.574,5.574,0,0,1-1.85.091,4.136,4.136,0,0,1-2.812-.961,3.6,3.6,0,0,1-.627-1.817,2.578,2.578,0,0,0-1.288-1.954c-1.168-.7-1.25-.568-2.337.493a31.016,31.016,0,0,1-3.468,2.73,9.255,9.255,0,0,1-2.283,1.383c-1.787.62-3.539,1.507-5.546,1.154-.634-.112-1.3-.049-1.933-.158a5.769,5.769,0,0,1-2.668-1.447A8.1,8.1,0,0,1,.611,7.593,9,9,0,0,1,.1,6.006c-.441-1.647.667-2.57,1.77-3.322A13.747,13.747,0,0,1,9.66,0c2.539.007,4.9,2.555,3.992,5.153a7.187,7.187,0,0,1-2.7,3.9A6.646,6.646,0,0,0,10,9.972Zm-1.014-8.9Q7.247,1.854,5.305,2.44c-1.114.338-2.074.74-2,2.229.082,1.683.013,3.338,1.05,4.845a1.024,1.024,0,0,0,1.313.5A14.239,14.239,0,0,0,8.444,8.785a8.765,8.765,0,0,0,3.92-4.511,2.49,2.49,0,0,0-.472-1.89C11.3,1.456,10.256,1.395,9.189,1.268Z" transform="translate(53.238 18.442)"/><path d="M31.114,17.924a19.15,19.15,0,0,0-1.615-1.2c-1.029-.612-2.093-1.167-3.15-1.731a19.5,19.5,0,0,0-2.118-1.062c-.786-.3-1.633-.445-2.432-.721-.752-.26-1.475-.6-2.211-.91a1.068,1.068,0,0,0-.219-.1c-1.125-.171-2.254-.316-3.374-.514-.4-.071-.785-.266-1.2-.371a8.663,8.663,0,0,1-1.508-.45.637.637,0,0,0-.909.139c-.1.116-.344.118-.525.153-.216.042-.435.065-.653.1l-.05.212a2.753,2.753,0,0,0,.781.449c1.651.305,3.309.566,4.966.841a14.43,14.43,0,0,1,2.142.383c.4.133.714.555,1.066.847l-.085.288c-.744-.039-1.493-.04-2.232-.126-1.511-.176-3.03-.333-4.521-.62a24.6,24.6,0,0,1-3.853-1.056c-.422-.155-.7-.77-.969-1.217-.053-.088.168-.454.341-.545a3.232,3.232,0,0,1,1.105-.363c.938-.11,1.9-.066,2.831-.083a14.715,14.715,0,0,1,3.52.742c.122.029.218.165.333.107.512.069,1.026.127,1.535.211a5.4,5.4,0,0,1,.679.2c1.63.5,3.279.947,4.884,1.518a42.055,42.055,0,0,1,4.437,1.832,10.808,10.808,0,0,1,3.7,2.454c.4.466.775.254,1.175-.1.535-.48,1.155-.863,1.7-1.335.19-.165.246-.477.386-.708.529-.873,1.3-1.62,1.211-2.789-.023-.314.362-.638.458-.986.194-.7.252-1.443.487-2.127.453-1.323.966-2.628,1.5-3.922a30.443,30.443,0,0,1,1.311-2.814,8.8,8.8,0,0,1,1.129-1.5c.069-.081.348.019.529.035L41.566.843A6.171,6.171,0,0,1,42.733,0c.1-.044.559.435.659.737a5.478,5.478,0,0,1,.339,1.839,8.882,8.882,0,0,1-.392,3.089c-.791,1.875-1.592,3.811-3.251,5.148a2.045,2.045,0,0,0-.985,1.354c-.008.073-.071.194-.12.2-.722.085-.713.866-1.138,1.191A4.072,4.072,0,0,0,36.48,16.6c-.121.944-.292,1.882-.449,2.821a8.35,8.35,0,0,0,.686,5.017,11.2,11.2,0,0,1,.84,5.159c-.812.089-1.311.059-1.8-.788a4.316,4.316,0,0,1-.743-2.543,11.384,11.384,0,0,0-.414-3.035,5.941,5.941,0,0,0-.8-1.8,8.6,8.6,0,0,0-1.332-1.557.768.768,0,0,0-.738.067c-1.187,1.109-2.321,2.275-3.5,3.391A35.7,35.7,0,0,1,25.352,25.9c-1.467,1.114-3.045,2.08-4.523,3.179a10.048,10.048,0,0,1-3.252,1.5A22.759,22.759,0,0,1,14.9,31.663a4.585,4.585,0,0,1-2.28-.526,4.819,4.819,0,0,1-1.352-1.082,1.589,1.589,0,0,0-1.806-.279A38.755,38.755,0,0,0,5.568,31.5c-1.053.552-3.947.481-5.057-.734a3.07,3.07,0,0,1,.028-3.432,6.2,6.2,0,0,1,4.049-2.446c.357-.064.665-.366,1.021-.472a24.277,24.277,0,0,1,3.827-1.03,6.792,6.792,0,0,1,4.244.412,2.89,2.89,0,0,1,1.081,3.5c-.425.748-.911,1.461-1.346,2.2a.624.624,0,0,0-.061.509c.046.089.32.112.477.083a13.962,13.962,0,0,0,3.094-.654c1.393-.615,2.655-1.521,4-2.26a10.629,10.629,0,0,1,1.531-.587c.2-.073.467-.062.614-.191,1.415-1.247,2.811-2.515,4.212-3.778,1.226-1.105,2.475-2.187,3.656-3.338.211-.205.146-.7.2-1.06A1.437,1.437,0,0,0,31.114,17.924ZM3.291,30.811l.106-.133A4.837,4.837,0,0,0,4.581,30.5a18.025,18.025,0,0,1,2.371-1.1c1.229-.3,2.227-1.286,3.579-1.171.448.038.9.118,1.344.112a1.029,1.029,0,0,0,.7-.244,5.2,5.2,0,0,0,.782-1.181c.232-.482.632-1.107.485-1.485a1.871,1.871,0,0,0-1.345-.816,9.608,9.608,0,0,0-4.653.314c-2.01.74-4.288.793-5.913,2.524-.711.757-1,1.8-.235,2.5A7.1,7.1,0,0,0,3.291,30.811ZM42.246,1.3A31.971,31.971,0,0,0,37.5,12.262c.193-.112.225-.316.342-.437a24.868,24.868,0,0,0,2.192-2.147c.733-.968,1.554-1.868,2.321-2.811.058-.071-.012-.246-.023-.373a2.176,2.176,0,0,1-.054-.711c.279-1.028.6-2.045.893-3.031ZM34.079,17.041a13.255,13.255,0,0,0-.584,1.207c-.1.258-.217.69-.1.809.4.394.587,1.2,1.412.923a.513.513,0,0,0,.258-.376c.077-.942.125-1.886.18-2.793Z" transform="translate(207.735)"/><path d="M26.081,13.244c-1.057.083-1.484-.832-1.062-2.076a23.467,23.467,0,0,0,.575-2.531c.034-.153.066-.306.092-.461.055-.318.106-.636.158-.954-.414,0-.915-.157-1.227.021a11.921,11.921,0,0,1-4.082,1.289,1.3,1.3,0,0,1-1.613-.8c-.258-.645-1.093-.745-2.034-.309a19.316,19.316,0,0,1-3.064,1.417,4.5,4.5,0,0,1-2.49-.221A7.148,7.148,0,0,1,9.471,7.28a1.772,1.772,0,0,0-1.942.094c-.792.5-1.741.74-2.561,1.2a3.244,3.244,0,0,1-2.455.383A3.413,3.413,0,0,1,.026,6.9c-.146-.382.354-1,.543-1.523C.65,5.151.811,4.82.721,4.7.443,4.33.564,4.12.866,3.89,2.206,2.87,3.479,1.743,4.9.853a6.8,6.8,0,0,1,4.347-.8c.516.051,1.215,1.08,1.245,1.6a7.026,7.026,0,0,1-.449,3.068,1.63,1.63,0,0,0,.731,1.833c1.507,1.086,1.512,1.1,3.315.409,1.37-.522,2.724-1.083,4.091-1.613.7-.272,1.16.283,1.478.67.7.846,1.085,1.047,1.983.664a22.662,22.662,0,0,1,3.725-1.4c.465-.108.854-.675,1.387-.229a2,2,0,0,1,.622.792c.53,1.522-.2,2.958-.413,4.42A21.071,21.071,0,0,1,26.081,13.244ZM3.465,7.859A8.869,8.869,0,0,0,7.747,5.315a10,10,0,0,0,1.637-2.48c.241-.672-.174-1.566-.846-1.58a6.108,6.108,0,0,0-3.78,1.218A32.106,32.106,0,0,0,1.731,5.3,1.184,1.184,0,0,0,1.8,7.243,7.111,7.111,0,0,0,3.465,7.859Z" transform="translate(303.267 13.786)"/><path d="M1.979,22.095a3.526,3.526,0,0,0,.571-.493c.519-.768.978-1.58,1.535-2.318a20.964,20.964,0,0,1,1.568-1.718c.251-.264.644-.455.77-.762C6.868,15.719,8,15.465,8.746,14.758c.408-.386.843-.743,1.257-1.123a3.836,3.836,0,0,1,2.485-1.318c.147,0,.327-.178.426-.319a4.5,4.5,0,0,1,2.31-1.744,9.067,9.067,0,0,0,2.006-1.288c.522-.362,1.016-.766,1.536-1.131.8-.561,1.622-1.089,2.411-1.664.291-.212.474-.59.779-.76A2.76,2.76,0,0,1,23.2,5.047c.176,0,.542.469.5.649a2.142,2.142,0,0,1-.621.924c-.42.415-.9.77-1.348,1.156-.122.1-.207.3-.341.335-1.512.428-2.531,1.642-3.843,2.382-1.157.652-2.351,1.237-3.494,1.911a24.5,24.5,0,0,0-2.4,1.623c-1.165.888-2.295,1.823-3.431,2.748a18.152,18.152,0,0,0-3.718,4.137c-.994,1.51-2.113,2.937-3.151,4.418-.276.395-.644.521-.936.227-.248-.25-.511-.865-.385-1.036a3.814,3.814,0,0,0,.511-1.8,18.586,18.586,0,0,1,.79-2.466.822.822,0,0,0,.093-.378,5.791,5.791,0,0,1,.736-3.766c.079-.173.138-.483.046-.585-.4-.447-.119-.8.015-1.235A5.626,5.626,0,0,0,2.584,12.1c-.139-1.2.757-2.237.365-3.458-.1-.317.186-.752.273-1.138.3-1.307.552-2.624.882-3.923.216-.854.516-1.688.813-2.518A2.042,2.042,0,0,1,5.43.181C5.631.015,6,.053,6.3,0a1.825,1.825,0,0,1,.061.722c-.319.877-.715,1.726-1.035,2.6A7.422,7.422,0,0,0,5.1,4.494c-.422,2.245-.853,4.487-1.265,6.734A25.426,25.426,0,0,0,3.2,15.209c-.036,1.758-.948,3.287-1.052,5C2.111,20.756,2.049,21.3,1.979,22.095Z" transform="translate(264.332 1.867)"/><path d="M0,17.9c.413-1.7.807-3.267,1.171-4.841.26-1.125.408-2.281.746-3.38.15-.488.556-.854.627-1.463a16.633,16.633,0,0,1,.78-3.408c.327-.959.379-2.034,1.152-2.843.3-.31.341-.845.574-1.234a2.159,2.159,0,0,1,.7-.695.593.593,0,0,1,.571.108.694.694,0,0,1,.041.6c-.317.75-.73,1.463-1.014,2.224-.41,1.1-.791,2.213-1.089,3.346-.569,2.166-1.063,4.351-1.6,6.524-.185.745-.424,1.477-.615,2.221a1.133,1.133,0,0,0,.076.437,2.627,2.627,0,0,0,.723-.168C4.3,14.5,5.7,13.566,7.206,12.843a17.438,17.438,0,0,1,3.132-.924c.911-.24,1.722.729,2.07,1.906a4.108,4.108,0,0,1-.114,2.924,2.738,2.738,0,0,0-.1.549c-.175.837-.341,1.677-.537,2.509-.06.252-.253.473-.306.725-.091.43-.277.768-.743.572-.279-.117-.647-.442-.659-.688a5.681,5.681,0,0,1,.247-1.658c.253-.978.647-1.928.812-2.918a5.8,5.8,0,0,0-.206-1.9c-.02-.112-.294-.244-.458-.254a6.268,6.268,0,0,0-3.831,1.261c-.4.262-.813.511-1.211.78-1.008.68-2,1.385-3.021,2.045a3.777,3.777,0,0,1-1.456.7C.531,18.509.173,18.03,0,17.9Z" transform="translate(286.911 5.723)"/><path d="M1.79,2.676l.272.632c2.315.3,4.236,1.421,6.285,2.178q0,.113.008.227c-.193.064-.423.231-.574.178C6.1,5.293,4.428,4.663,2.755,4.039a23.708,23.708,0,0,1-2.3-.886.73.73,0,0,1,.02-1.359A7.647,7.647,0,0,1,2.6,1.185C4.172.993,5.761.946,7.335.769c1.882-.211,3.754-.5,5.634-.743A7.821,7.821,0,0,1,14.14.02c1,.025,2.009.035,3.009.111.2.015.373.3.558.458-.16.138-.308.376-.481.4-.936.107-1.879.152-2.818.234-.555.049-1.106.161-1.661.184-.964.04-1.932,0-2.893.059-.629.041-1.246.236-1.875.314C6.2,1.993,4.413,2.18,2.631,2.4A4.633,4.633,0,0,0,1.79,2.676Z" transform="translate(182.415 31.341)"/><path d="M2.648,5.363c.039.48.105.961.1,1.441a2.225,2.225,0,0,1-.207.646c-.185-.085-.373-.165-.555-.257A2.538,2.538,0,0,1,1.3,6.8a1.458,1.458,0,0,1-.373-.715C.775,5.265.677,4.433.562,3.6c-.1-.7-.156-1.415-.3-2.109C.182,1.088-.23.746.176.278.428-.013.525-.133.894.2a6.116,6.116,0,0,1,1.393,2.96,16.088,16.088,0,0,1,.4,2.192Z" transform="translate(273.332 17.521)"/><path d="M2.243.344A8.81,8.81,0,0,1,3.681,0c.3-.023.781.089.885.292.2.4-.122.559-.538.649-.969.209-1.918.506-2.882.74a.734.734,0,0,1-.532-.1A4.858,4.858,0,0,1,0,.983C.21.808.394.549.635.475A14.275,14.275,0,0,1,2.2.166Z" transform="translate(249.266 19.415)"/><path d="M3.378,1.508c-1,.3-1.754.577-2.536.736-.248.051-.56-.21-.843-.328a4.039,4.039,0,0,1,.36-.8A5.089,5.089,0,0,1,1.012.528C1.446.116,1.963-.225,2.5.186A5.3,5.3,0,0,1,3.378,1.508Z" transform="translate(333.036 22.742)"/><path d="M.143,0c.639.806,1.992.267,2.52,1.283l-.115.22L0,.3Z" transform="translate(192.484 37.13)"/><path d="M1.339,1.026,0,.176.038,0l1.5.606Z" transform="translate(195.324 38.25)"/></g><g class="f" transform="translate(-40.719 377.282) rotate(-5)"><path class="g" d="M91.208,53.218a7.113,7.113,0,0,1-1.8-.536,5.03,5.03,0,0,1-1.84-1.532A22.386,22.386,0,0,0,85.4,48.735a8.511,8.511,0,0,1-.8-1.39.792.792,0,0,0-.133-.236,4.188,4.188,0,0,1-1-1.641A4.241,4.241,0,0,0,82.025,44.1c-1.33-.949-2.684-1.879-4.083-2.753a22.862,22.862,0,0,0-2.112-.971c-.593-.289-1.153-.626-1.736-.929a15.725,15.725,0,0,0-1.447-.71c-1.5-.6-3.032-1.152-4.53-1.761a4.593,4.593,0,0,1-.915-.656l.244-.308c2.441,1.183,5.107,1.946,7.5,3.242,2.308,1.25,4.72,2.362,7.2,3.589-.024-.223,0-.333-.048-.386a7,7,0,0,1-1.477-3.448,10.154,10.154,0,0,0-.8-1.7c-.008-.017-.06-.037-.059-.038.372-.5-.294-.783-.348-1.2-.171-1.324-.449-2.641-.533-3.969a24.358,24.358,0,0,1,.113-3.5c.052-.644.27-1.277.382-1.919.024-.137-.1-.289-.138-.437a2.42,2.42,0,0,1-.137-.787c.137-1.126.316-2.248.48-3.371l-.21-.111c-.4.206-.8.4-1.193.619a15.873,15.873,0,0,1-4.882,1.759,3.941,3.941,0,0,1-3.235-1.251,1.721,1.721,0,0,0-1.675-.225,6.5,6.5,0,0,1-2.8,1.141,9.725,9.725,0,0,1-3.744.64A1.959,1.959,0,0,1,60.055,23.6c-.5-.951-.725-.994-1.779-.5-.839.395-1.79.631-2.585,1.074a10.778,10.778,0,0,1-3.689,1,3.047,3.047,0,0,1-3.367-1.324,15.278,15.278,0,0,1-2.195.9,17.828,17.828,0,0,1-4.19.741c-.9,0-2.159-.052-2.568-1.268a8.048,8.048,0,0,0-1.463-2.176,1.049,1.049,0,0,0-.836-.267c-1.092.3-2.171.655-3.223,1.051-1.215.458-2.374,1.028-3.6,1.458a19.72,19.72,0,0,1-2.762.683c-.505.1-1.448-.667-1.77-1.258a9,9,0,0,0-1.113-1.711,1.426,1.426,0,0,0-1.1-.356c-1.025.245-2,.638-3.008.942-.539.162-1.115.235-1.659.389-.871.247-1.71.589-2.6.781-2.047.444-4.064.846-6.2.076a36.98,36.98,0,0,0-3.779-.668c-1.6-.384-3.307-.617-4.518-1.737C1.381,20.807.716,20.169.074,19.517c-.092-.093-.1-.394-.019-.438a7.054,7.054,0,0,1,1.711-.821,1.683,1.683,0,0,1,1.631.569,17.583,17.583,0,0,0,3.429,2.637,5.212,5.212,0,0,0,4.858.46,21.013,21.013,0,0,1,2.061-.817,8.864,8.864,0,0,0,4.218-3.157,17.981,17.981,0,0,0,2.316-3.765,13.464,13.464,0,0,0,.682-3.113,9.976,9.976,0,0,0-.268-4.621c-.2-.7-.812-1.322-.958-2.021a3.221,3.221,0,0,0-1.268-1.646,6.461,6.461,0,0,0-4.829-1.6c-1.662.1-3.338.053-4.993.2A3.746,3.746,0,0,0,7,2.132c-1.339.926-1.44,1.676-.607,2.988a10.163,10.163,0,0,0,4.18,3.314,12.237,12.237,0,0,0,1.268.574,11.721,11.721,0,0,0,1.611.521,1.274,1.274,0,0,1,1.2,1.432c-.59-.125-1.133-.283-1.692-.347a2.769,2.769,0,0,1-1.9-.791c-.251-.275-.807-.349-1.224-.517A14.78,14.78,0,0,1,6.205,6.659a4.745,4.745,0,0,1-1.473-2.37C4.218,2.884,5.369,1.365,7.172.764A18.641,18.641,0,0,1,13.463.006,6.684,6.684,0,0,1,15.905.33c1.359.594,2.945.9,3.833,2.189a12.953,12.953,0,0,1,2.142,3.5,10.468,10.468,0,0,1,.443,3.171,24.039,24.039,0,0,1-.576,4.909,10.393,10.393,0,0,1-1.637,3.377,17.22,17.22,0,0,1-2.872,3.13,11.135,11.135,0,0,1-2.647,1.383c-.72.326-1.493.566-2.242.844l.03.19a25.052,25.052,0,0,0,2.793-.257,20.9,20.9,0,0,0,4.261-1.118c1.159-.511,2.374-.826,3.541-1.264,1.338-.5,2.07-.453,2.856.561a17.623,17.623,0,0,0,1.759,1.965,1.3,1.3,0,0,0,1.675.221,26.939,26.939,0,0,1,3.175-1.242c1.153-.416,2.314-.817,3.488-1.189A13.742,13.742,0,0,1,38,20.189a1.046,1.046,0,0,1,1.2.475c.409.786.892,1.545,1.333,2.32a2.912,2.912,0,0,0,3.25,1.13A22.236,22.236,0,0,0,46.5,22.99c.234-.1.5-.147.73-.247,1.17-.5,2.348-1,3.492-1.538.275-.13.377-.539.652-.65,1.281-.514,2.347-1.416,3.953-1.357A21.667,21.667,0,0,0,58.4,18.85a13.211,13.211,0,0,1,1.7-.1,1.253,1.253,0,0,1,.834.258,7.6,7.6,0,0,1,.968,1.763c.192.533-.083.955-.844.978.318,1.582,1.667,2.063,3.4,1.344s3.5-1.354,5.282-1.954c1.252-.421,1.954.014,2.051,1.146.081.955.191.893,1.264.8a11.694,11.694,0,0,0,3.985-1.475,22.162,22.162,0,0,0,2.981-2.1,2.274,2.274,0,0,1,1.076-.428c.6-.032.844.274.68.813-.277.9-.516,1.816-.747,2.728a3.128,3.128,0,0,0-.008.706l-.207.086c-.146,1.071-.277,2.036-.409,3a16.619,16.619,0,0,0-.268,2.059,42.337,42.337,0,0,0,.11,4.47,20.641,20.641,0,0,0,.767,4.34,57.922,57.922,0,0,0,2.218,5.389A8.3,8.3,0,0,0,84.3,44.593a16.941,16.941,0,0,0,1.919,1.875c.85.763,1.968,1.3,2.542,2.3a3.47,3.47,0,0,0,.768.7c.075.066.2.106.242.182.485.814.979,1.624,1.424,2.453a3.288,3.288,0,0,1,.205.86ZM50.35,23.548l.2.224a5.619,5.619,0,0,0,1.087.129c.6-.043,1.2-.166,1.791-.262a2.137,2.137,0,0,0,.519-.125q1.585-.705,3.159-1.431c.952-.44,1.9-.892,2.884-1.359a3.347,3.347,0,0,0-2.7-.378c-1.994.766-3.984,1.542-5.946,2.365A4.194,4.194,0,0,0,50.35,23.548Zm-45.5-1.766c-.107-.222-.121-.326-.19-.381-.645-.523-1.291-1.045-1.958-1.547a1.094,1.094,0,0,0-.612-.229c-.119,0-.34.255-.322.374a.827.827,0,0,0,.347.539c.616.376,1.262.716,1.916,1.044A4.379,4.379,0,0,0,4.852,21.782ZM86.179,47.659l-.3.191,2.462,2.76.281-.181A8.113,8.113,0,0,0,86.179,47.659Z" transform="translate(132.172 3.289)"/><path class="g" d="M63.625,10.46l.074.1c-1.075.789-2.12,1.591-3.2,2.339s-2.245,1.429-3.335,2.191c-1.218.852-2.408,1.744-3.585,2.652-1.7,1.311-3.437,2.583-5.049,4-1.962,1.722-3.832,3.551-5.7,5.381-.794.779-1.478,1.672-2.2,2.525a1.738,1.738,0,0,1-2.68-.272,9.106,9.106,0,0,1-1.182-5.7c.171-1.978.035-3.98.088-5.97.033-1.226.227-2.449.24-3.675a21.928,21.928,0,0,0-.337-3.972c-.181.292-.381.574-.539.877-.525,1.008-.963,2.068-1.565,3.027-1.217,1.94-2.452,3.876-3.813,5.714a28.362,28.362,0,0,1-2.672,2.739c-.737.754-1.418,1.566-2.2,2.274-.829.754-1.74,1.42-2.62,2.117-.457.362-.937.7-1.39,1.063-1.488,1.207-2.938,2.464-4.463,3.623a18.247,18.247,0,0,1-2.769,1.7,34.373,34.373,0,0,1-4.652,2.128,28.662,28.662,0,0,1-4.42.824A11.342,11.342,0,0,1,4,36.28c-1.3.019-2.6.006-3.845.006-.412-1.212-.006-1.758,1.109-1.6a11.742,11.742,0,0,0,5.08-.448c1.326-.395,2.742-.509,4.043-.962,1.06-.368,2.264-.532,3.071-1.483a2.655,2.655,0,0,1,.68-.422c.931-.564,1.888-1.091,2.785-1.706.628-.43,1.164-.992,1.759-1.473,1.194-.967,2.409-1.907,3.6-2.88,1.351-1.107,2.74-2.178,4.006-3.377,1.214-1.15,2.209-2.539,3.459-3.643.918-.811,1.194-2.014,2.061-2.8a4.077,4.077,0,0,0,1.2-2c.071-.256.4-.432.6-.662a3.507,3.507,0,0,0,.543-.74q.836-1.823,1.616-3.672c.276-.657.508-1.334.734-2.011q.651-1.958,1.264-3.928c.069-.222.013-.48.073-.707.112-.428.173-1.1.756-.91a1.017,1.017,0,0,1,.844,1.16c-.288,1.577-.538,3.166-.7,4.76-.126,1.252-.078,2.52-.136,3.78-.1,2.127-.25,4.253-.327,6.381-.064,1.782-.047,3.567-.079,5.351-.014.8-.09,1.6-.082,2.406a9.338,9.338,0,0,0,.181,1.519,5.823,5.823,0,0,0,.322,1.224,1.868,1.868,0,0,0,.591.794c.086.06.5-.223.668-.427.615-.744,1.148-1.558,1.79-2.275.57-.636,1.242-1.182,1.873-1.764,1.613-1.489,3.184-3.029,4.856-4.449,1.448-1.229,2.98-2.365,4.533-3.461a28.675,28.675,0,0,0,3.825-2.764,18.782,18.782,0,0,1,2.639-1.746c1.077-.742,2.1-1.561,3.192-2.285.8-.533,1.662-.979,2.507-1.442,1.248-.683,2.5-1.367,3.763-2.014.844-.431,1.742-.759,2.579-1.2,1.452-.769,2.858-1.626,4.316-2.384A40.433,40.433,0,0,1,79.989.03c.388-.148,1.017.282,1.5.516a1.087,1.087,0,0,1-.2.764,9.963,9.963,0,0,1-1.3.583c-.666.332-1.31.708-1.972,1.049-.471.243-.955.461-1.436.686q-1.142.537-2.287,1.069c-1.165.542-2.35,1.045-3.49,1.634A33.866,33.866,0,0,0,67.845,8.06c-.833.543-1.525,1.308-2.615,1.392-.224.017-.419.316-.644.458C64.275,10.106,63.948,10.277,63.625,10.46Z" transform="translate(0 1.248)"/><path class="g" d="M10.2,10.17c1.237-.628,2.507-1.2,3.7-1.9a23.232,23.232,0,0,0,4.6-3.744c.363-.362.541-.893,1.184-.779a1.126,1.126,0,0,1,.44.158c.641.449,1.252.943,1.909,1.365a4,4,0,0,1,1.824,2.869,1.044,1.044,0,0,0,.712.949,3.625,3.625,0,0,0,2.68.181c1.449-.508,2.964-.83,4.4-1.377S34.427,6.6,35.828,5.984c1.063-.469,2.153-.873,3.23-1.31a.81.81,0,0,0,.277-.166c1.19-1.229,2.78-1.372,4.326-1.471a2.813,2.813,0,0,1,2.615,1.091c.347.556.172,1.443.214,2.182.007.126-.1.255-.11.387a.8.8,0,0,1-1.007.784,1.71,1.71,0,0,1-.878-1,5.13,5.13,0,0,1-.033-1.543C42.6,5.49,40.909,5.961,39.244,6.5a2.814,2.814,0,0,0-1.282,2.49c.1.475.421.777.876.574,1.22-.543,2.625-.682,3.619-1.752a2.316,2.316,0,0,1,1.335-.524.967.967,0,0,1,.8.445c.657,1.6,1.318,2.132,2.979,2.185a15.178,15.178,0,0,0,2.891-.011,13.545,13.545,0,0,0,3-.931c1.457-.61,2.877-1.31,4.295-2.007,1.19-.584,2.343-1.244,3.536-1.82.6-.288,1.254-.445,1.87-.7a22.631,22.631,0,0,1,5.377-1.578c.538-.075.985-.249,1.511.291-1.032.467-2.009.923-3,1.353-1.187.517-2.382,1.017-3.579,1.511a3.267,3.267,0,0,1-.625.125c-.184.036-.448.007-.539.118-.863,1.059-2.181,1.428-3.293,2.048-1.741.97-3.745,1.46-5.515,2.388-2.292,1.2-4.713.935-7.1.891a2.527,2.527,0,0,1-2.261-1.287c-.2-.389-.482-.756-1.129-.466-1.078.484-2.228.8-3.332,1.234a2.337,2.337,0,0,1-3.4-1.957c-.053-.424-.1-.849-.161-1.343a21.141,21.141,0,0,0-2.064,1,18.985,18.985,0,0,1-3.6,1.312c-.951.315-1.9.648-2.877.871a5.574,5.574,0,0,1-1.85.091,4.136,4.136,0,0,1-2.812-.961,3.6,3.6,0,0,1-.627-1.817,2.578,2.578,0,0,0-1.288-1.954c-1.168-.7-1.25-.568-2.337.493a31.016,31.016,0,0,1-3.468,2.73,9.255,9.255,0,0,1-2.283,1.383c-1.787.62-3.539,1.507-5.546,1.154-.634-.112-1.3-.049-1.933-.158a5.769,5.769,0,0,1-2.668-1.447A8.1,8.1,0,0,1,.611,7.593,9,9,0,0,1,.1,6.006c-.441-1.647.667-2.57,1.77-3.322A13.747,13.747,0,0,1,9.66,0c2.539.007,4.9,2.555,3.992,5.153a7.187,7.187,0,0,1-2.7,3.9A6.646,6.646,0,0,0,10,9.972Zm-1.014-8.9Q7.247,1.854,5.305,2.44c-1.114.338-2.074.74-2,2.229.082,1.683.013,3.338,1.05,4.845a1.024,1.024,0,0,0,1.313.5A14.239,14.239,0,0,0,8.444,8.785a8.765,8.765,0,0,0,3.92-4.511,2.49,2.49,0,0,0-.472-1.89C11.3,1.456,10.256,1.395,9.189,1.268Z" transform="translate(53.238 18.442)"/><path class="g" d="M31.114,17.924a19.15,19.15,0,0,0-1.615-1.2c-1.029-.612-2.093-1.167-3.15-1.731a19.5,19.5,0,0,0-2.118-1.062c-.786-.3-1.633-.445-2.432-.721-.752-.26-1.475-.6-2.211-.91a1.068,1.068,0,0,0-.219-.1c-1.125-.171-2.254-.316-3.374-.514-.4-.071-.785-.266-1.2-.371a8.663,8.663,0,0,1-1.508-.45.637.637,0,0,0-.909.139c-.1.116-.344.118-.525.153-.216.042-.435.065-.653.1l-.05.212a2.753,2.753,0,0,0,.781.449c1.651.305,3.309.566,4.966.841a14.43,14.43,0,0,1,2.142.383c.4.133.714.555,1.066.847l-.085.288c-.744-.039-1.493-.04-2.232-.126-1.511-.176-3.03-.333-4.521-.62a24.6,24.6,0,0,1-3.853-1.056c-.422-.155-.7-.77-.969-1.217-.053-.088.168-.454.341-.545a3.232,3.232,0,0,1,1.105-.363c.938-.11,1.9-.066,2.831-.083a14.715,14.715,0,0,1,3.52.742c.122.029.218.165.333.107.512.069,1.026.127,1.535.211a5.4,5.4,0,0,1,.679.2c1.63.5,3.279.947,4.884,1.518a42.055,42.055,0,0,1,4.437,1.832,10.808,10.808,0,0,1,3.7,2.454c.4.466.775.254,1.175-.1.535-.48,1.155-.863,1.7-1.335.19-.165.246-.477.386-.708.529-.873,1.3-1.62,1.211-2.789-.023-.314.362-.638.458-.986.194-.7.252-1.443.487-2.127.453-1.323.966-2.628,1.5-3.922a30.443,30.443,0,0,1,1.311-2.814,8.8,8.8,0,0,1,1.129-1.5c.069-.081.348.019.529.035L41.566.843A6.171,6.171,0,0,1,42.733,0c.1-.044.559.435.659.737a5.478,5.478,0,0,1,.339,1.839,8.882,8.882,0,0,1-.392,3.089c-.791,1.875-1.592,3.811-3.251,5.148a2.045,2.045,0,0,0-.985,1.354c-.008.073-.071.194-.12.2-.722.085-.713.866-1.138,1.191A4.072,4.072,0,0,0,36.48,16.6c-.121.944-.292,1.882-.449,2.821a8.35,8.35,0,0,0,.686,5.017,11.2,11.2,0,0,1,.84,5.159c-.812.089-1.311.059-1.8-.788a4.316,4.316,0,0,1-.743-2.543,11.384,11.384,0,0,0-.414-3.035,5.941,5.941,0,0,0-.8-1.8,8.6,8.6,0,0,0-1.332-1.557.768.768,0,0,0-.738.067c-1.187,1.109-2.321,2.275-3.5,3.391A35.7,35.7,0,0,1,25.352,25.9c-1.467,1.114-3.045,2.08-4.523,3.179a10.048,10.048,0,0,1-3.252,1.5A22.759,22.759,0,0,1,14.9,31.663a4.585,4.585,0,0,1-2.28-.526,4.819,4.819,0,0,1-1.352-1.082,1.589,1.589,0,0,0-1.806-.279A38.755,38.755,0,0,0,5.568,31.5c-1.053.552-3.947.481-5.057-.734a3.07,3.07,0,0,1,.028-3.432,6.2,6.2,0,0,1,4.049-2.446c.357-.064.665-.366,1.021-.472a24.277,24.277,0,0,1,3.827-1.03,6.792,6.792,0,0,1,4.244.412,2.89,2.89,0,0,1,1.081,3.5c-.425.748-.911,1.461-1.346,2.2a.624.624,0,0,0-.061.509c.046.089.32.112.477.083a13.962,13.962,0,0,0,3.094-.654c1.393-.615,2.655-1.521,4-2.26a10.629,10.629,0,0,1,1.531-.587c.2-.073.467-.062.614-.191,1.415-1.247,2.811-2.515,4.212-3.778,1.226-1.105,2.475-2.187,3.656-3.338.211-.205.146-.7.2-1.06A1.437,1.437,0,0,0,31.114,17.924ZM3.291,30.811l.106-.133A4.837,4.837,0,0,0,4.581,30.5a18.025,18.025,0,0,1,2.371-1.1c1.229-.3,2.227-1.286,3.579-1.171.448.038.9.118,1.344.112a1.029,1.029,0,0,0,.7-.244,5.2,5.2,0,0,0,.782-1.181c.232-.482.632-1.107.485-1.485a1.871,1.871,0,0,0-1.345-.816,9.608,9.608,0,0,0-4.653.314c-2.01.74-4.288.793-5.913,2.524-.711.757-1,1.8-.235,2.5A7.1,7.1,0,0,0,3.291,30.811ZM42.246,1.3A31.971,31.971,0,0,0,37.5,12.262c.193-.112.225-.316.342-.437a24.868,24.868,0,0,0,2.192-2.147c.733-.968,1.554-1.868,2.321-2.811.058-.071-.012-.246-.023-.373a2.176,2.176,0,0,1-.054-.711c.279-1.028.6-2.045.893-3.031ZM34.079,17.041a13.255,13.255,0,0,0-.584,1.207c-.1.258-.217.69-.1.809.4.394.587,1.2,1.412.923a.513.513,0,0,0,.258-.376c.077-.942.125-1.886.18-2.793Z" transform="translate(207.735)"/><path class="g" d="M26.081,13.244c-1.057.083-1.484-.832-1.062-2.076a23.467,23.467,0,0,0,.575-2.531c.034-.153.066-.306.092-.461.055-.318.106-.636.158-.954-.414,0-.915-.157-1.227.021a11.921,11.921,0,0,1-4.082,1.289,1.3,1.3,0,0,1-1.613-.8c-.258-.645-1.093-.745-2.034-.309a19.316,19.316,0,0,1-3.064,1.417,4.5,4.5,0,0,1-2.49-.221A7.148,7.148,0,0,1,9.471,7.28a1.772,1.772,0,0,0-1.942.094c-.792.5-1.741.74-2.561,1.2a3.244,3.244,0,0,1-2.455.383A3.413,3.413,0,0,1,.026,6.9c-.146-.382.354-1,.543-1.523C.65,5.151.811,4.82.721,4.7.443,4.33.564,4.12.866,3.89,2.206,2.87,3.479,1.743,4.9.853a6.8,6.8,0,0,1,4.347-.8c.516.051,1.215,1.08,1.245,1.6a7.026,7.026,0,0,1-.449,3.068,1.63,1.63,0,0,0,.731,1.833c1.507,1.086,1.512,1.1,3.315.409,1.37-.522,2.724-1.083,4.091-1.613.7-.272,1.16.283,1.478.67.7.846,1.085,1.047,1.983.664a22.662,22.662,0,0,1,3.725-1.4c.465-.108.854-.675,1.387-.229a2,2,0,0,1,.622.792c.53,1.522-.2,2.958-.413,4.42A21.071,21.071,0,0,1,26.081,13.244ZM3.465,7.859A8.869,8.869,0,0,0,7.747,5.315a10,10,0,0,0,1.637-2.48c.241-.672-.174-1.566-.846-1.58a6.108,6.108,0,0,0-3.78,1.218A32.106,32.106,0,0,0,1.731,5.3,1.184,1.184,0,0,0,1.8,7.243,7.111,7.111,0,0,0,3.465,7.859Z" transform="translate(303.267 13.786)"/><path class="g" d="M1.979,22.095a3.526,3.526,0,0,0,.571-.493c.519-.768.978-1.58,1.535-2.318a20.964,20.964,0,0,1,1.568-1.718c.251-.264.644-.455.77-.762C6.868,15.719,8,15.465,8.746,14.758c.408-.386.843-.743,1.257-1.123a3.836,3.836,0,0,1,2.485-1.318c.147,0,.327-.178.426-.319a4.5,4.5,0,0,1,2.31-1.744,9.067,9.067,0,0,0,2.006-1.288c.522-.362,1.016-.766,1.536-1.131.8-.561,1.622-1.089,2.411-1.664.291-.212.474-.59.779-.76A2.76,2.76,0,0,1,23.2,5.047c.176,0,.542.469.5.649a2.142,2.142,0,0,1-.621.924c-.42.415-.9.77-1.348,1.156-.122.1-.207.3-.341.335-1.512.428-2.531,1.642-3.843,2.382-1.157.652-2.351,1.237-3.494,1.911a24.5,24.5,0,0,0-2.4,1.623c-1.165.888-2.295,1.823-3.431,2.748a18.152,18.152,0,0,0-3.718,4.137c-.994,1.51-2.113,2.937-3.151,4.418-.276.395-.644.521-.936.227-.248-.25-.511-.865-.385-1.036a3.814,3.814,0,0,0,.511-1.8,18.586,18.586,0,0,1,.79-2.466.822.822,0,0,0,.093-.378,5.791,5.791,0,0,1,.736-3.766c.079-.173.138-.483.046-.585-.4-.447-.119-.8.015-1.235A5.626,5.626,0,0,0,2.584,12.1c-.139-1.2.757-2.237.365-3.458-.1-.317.186-.752.273-1.138.3-1.307.552-2.624.882-3.923.216-.854.516-1.688.813-2.518A2.042,2.042,0,0,1,5.43.181C5.631.015,6,.053,6.3,0a1.825,1.825,0,0,1,.061.722c-.319.877-.715,1.726-1.035,2.6A7.422,7.422,0,0,0,5.1,4.494c-.422,2.245-.853,4.487-1.265,6.734A25.426,25.426,0,0,0,3.2,15.209c-.036,1.758-.948,3.287-1.052,5C2.111,20.756,2.049,21.3,1.979,22.095Z" transform="translate(264.332 1.867)"/><path class="g" d="M0,17.9c.413-1.7.807-3.267,1.171-4.841.26-1.125.408-2.281.746-3.38.15-.488.556-.854.627-1.463a16.633,16.633,0,0,1,.78-3.408c.327-.959.379-2.034,1.152-2.843.3-.31.341-.845.574-1.234a2.159,2.159,0,0,1,.7-.695.593.593,0,0,1,.571.108.694.694,0,0,1,.041.6c-.317.75-.73,1.463-1.014,2.224-.41,1.1-.791,2.213-1.089,3.346-.569,2.166-1.063,4.351-1.6,6.524-.185.745-.424,1.477-.615,2.221a1.133,1.133,0,0,0,.076.437,2.627,2.627,0,0,0,.723-.168C4.3,14.5,5.7,13.566,7.206,12.843a17.438,17.438,0,0,1,3.132-.924c.911-.24,1.722.729,2.07,1.906a4.108,4.108,0,0,1-.114,2.924,2.738,2.738,0,0,0-.1.549c-.175.837-.341,1.677-.537,2.509-.06.252-.253.473-.306.725-.091.43-.277.768-.743.572-.279-.117-.647-.442-.659-.688a5.681,5.681,0,0,1,.247-1.658c.253-.978.647-1.928.812-2.918a5.8,5.8,0,0,0-.206-1.9c-.02-.112-.294-.244-.458-.254a6.268,6.268,0,0,0-3.831,1.261c-.4.262-.813.511-1.211.78-1.008.68-2,1.385-3.021,2.045a3.777,3.777,0,0,1-1.456.7C.531,18.509.173,18.03,0,17.9Z" transform="translate(286.911 5.723)"/><path class="g" d="M1.79,2.676l.272.632c2.315.3,4.236,1.421,6.285,2.178q0,.113.008.227c-.193.064-.423.231-.574.178C6.1,5.293,4.428,4.663,2.755,4.039a23.708,23.708,0,0,1-2.3-.886.73.73,0,0,1,.02-1.359A7.647,7.647,0,0,1,2.6,1.185C4.172.993,5.761.946,7.335.769c1.882-.211,3.754-.5,5.634-.743A7.821,7.821,0,0,1,14.14.02c1,.025,2.009.035,3.009.111.2.015.373.3.558.458-.16.138-.308.376-.481.4-.936.107-1.879.152-2.818.234-.555.049-1.106.161-1.661.184-.964.04-1.932,0-2.893.059-.629.041-1.246.236-1.875.314C6.2,1.993,4.413,2.18,2.631,2.4A4.633,4.633,0,0,0,1.79,2.676Z" transform="translate(182.415 31.341)"/><path class="g" d="M2.648,5.363c.039.48.105.961.1,1.441a2.225,2.225,0,0,1-.207.646c-.185-.085-.373-.165-.555-.257A2.538,2.538,0,0,1,1.3,6.8a1.458,1.458,0,0,1-.373-.715C.775,5.265.677,4.433.562,3.6c-.1-.7-.156-1.415-.3-2.109C.182,1.088-.23.746.176.278.428-.013.525-.133.894.2a6.116,6.116,0,0,1,1.393,2.96,16.088,16.088,0,0,1,.4,2.192Z" transform="translate(273.332 17.521)"/><path class="g" d="M2.243.344A8.81,8.81,0,0,1,3.681,0c.3-.023.781.089.885.292.2.4-.122.559-.538.649-.969.209-1.918.506-2.882.74a.734.734,0,0,1-.532-.1A4.858,4.858,0,0,1,0,.983C.21.808.394.549.635.475A14.275,14.275,0,0,1,2.2.166Z" transform="translate(249.266 19.415)"/><path class="g" d="M3.378,1.508c-1,.3-1.754.577-2.536.736-.248.051-.56-.21-.843-.328a4.039,4.039,0,0,1,.36-.8A5.089,5.089,0,0,1,1.012.528C1.446.116,1.963-.225,2.5.186A5.3,5.3,0,0,1,3.378,1.508Z" transform="translate(333.036 22.742)"/><path class="g" d="M.143,0c.639.806,1.992.267,2.52,1.283l-.115.22L0,.3Z" transform="translate(192.484 37.13)"/><path class="g" d="M1.339,1.026,0,.176.038,0l1.5.606Z" transform="translate(195.324 38.25)"/></g></g></g></svg>