<svg xmlns="http://www.w3.org/2000/svg" width="330.953" height="484.457" viewBox="0 0 330.953 484.457"><defs><style>.a,.e,.f{fill:#5962a4;}.b{fill:#fdc500;}.c,.d,.g{fill:#fff;}.c,.e{font-size:22px;}.c,.d,.e,.f{font-family:Alata-Regular, Alata;}.d,.f{font-size:10px;letter-spacing:0.08em;}</style></defs><g transform="translate(-22 -979.949)"><g transform="translate(352.555 1426.034) rotate(90)"><rect class="a" width="38.372" height="330.555"/></g><g transform="translate(352.555 1370.398) rotate(90)"><rect class="a" width="38.372" height="330.555"/></g><g transform="translate(352.555 1314.763) rotate(90)"><rect class="a" width="38.372" height="330.555"/></g><g transform="translate(352.555 1259.127) rotate(90)"><g transform="translate(0 0)"><rect class="a" width="38.372" height="330.555"/></g></g><g transform="translate(352.953 1203.492) rotate(90)"><rect class="a" width="38.372" height="330.953" transform="translate(0)"/></g><g transform="translate(352.953 1147.856) rotate(90)"><g transform="translate(0 0)"><rect class="a" width="38.372" height="330.953"/></g></g><g transform="translate(352.555 1092.221) rotate(90)"><g transform="translate(0)"><rect class="a" width="38.372" height="330.555"/></g></g><g transform="translate(352.555 1036.585) rotate(90)"><rect class="a" width="38.372" height="330.555" transform="translate(0 0)"/></g><g transform="translate(352.953 980.95) rotate(90)"><g transform="translate(0)"><rect class="a" width="38.372" height="330.953"/></g></g><g transform="translate(24.018 1426.034) rotate(90)"><g transform="translate(0)"><rect class="b" width="38.372" height="2.018"/></g></g><g transform="translate(25.548 1370.398) rotate(90)"><rect class="b" width="38.372" height="3.547"/></g><g transform="translate(114.05 1314.763) rotate(90)"><rect class="b" width="38.372" height="92.05"/></g><g transform="translate(313.503 1259.127) rotate(90)"><rect class="b" width="38.372" height="291.503" transform="translate(0 0)"/></g><g transform="translate(352.953 1203.492) rotate(90)"><rect class="b" width="38.372" height="330.953" transform="translate(0)"/></g><g transform="translate(261.5 1147.856) rotate(90)"><g transform="translate(0 0)"><rect class="b" width="38.372" height="239.5"/></g></g><g transform="translate(187.507 1092.221) rotate(90)"><rect class="b" width="38.372" height="165.507" transform="translate(0)"/></g><g transform="translate(133.011 1036.585) rotate(90)"><rect class="b" width="38.372" height="111.011" transform="translate(0 0)"/></g><g transform="translate(33.376 979.95) rotate(90)"><rect class="b" width="38.372" height="11.376" transform="translate(0)"/></g><text class="c" transform="translate(292 985)"><tspan x="8.718" y="24">186</tspan></text><text class="d" transform="translate(233 993)"><tspan x="0" y="11">1939</tspan></text><text class="c" transform="translate(292 1042)"><tspan x="4.648" y="24">1815</tspan></text><text class="d" transform="translate(233 1050)"><tspan x="0" y="11">1940</tspan></text><text class="c" transform="translate(285 1096)"><tspan x="3.308" y="24">2706</tspan></text><text class="d" transform="translate(233 1104)"><tspan x="0" y="11">1941</tspan></text><text class="c" transform="translate(285 1153)"><tspan x="3.33" y="24">3784</tspan></text><text class="e" transform="translate(285 1208)"><tspan x="8.06" y="24">5411</tspan></text><text class="f" transform="translate(233 1161)"><tspan x="0" y="11">1942</tspan></text><text class="f" transform="translate(233 1216)"><tspan x="0" y="11">1943</tspan></text><text class="e" transform="translate(285 1264)"><tspan x="3.451" y="24">47</tspan><tspan class="g" y="24">66</tspan></text><text class="f" transform="translate(233 1272)"><tspan x="0" y="11">1944</tspan></text><text class="c" transform="translate(285 1319)"><tspan x="5.101" y="24">1505</tspan></text><text class="d" transform="translate(233 1327)"><tspan x="0" y="11">1945</tspan></text><text class="c" transform="translate(306 1375)"><tspan x="5.788" y="24">58</tspan></text><text class="d" transform="translate(233 1383)"><tspan x="0" y="11">1946</tspan></text><text class="c" transform="translate(306 1431)"><tspan x="5.986" y="24">33</tspan></text><text class="d" transform="translate(233 1439)"><tspan x="0" y="11">1947</tspan></text></g></svg>