<svg xmlns="http://www.w3.org/2000/svg" width="387.34" height="275.775" viewBox="0 0 387.34 275.775"><defs><style>.a{fill:#2a305b;opacity:0.494;}.b{fill:#5a62a4;}.c,.d,.p,.v{fill:none;}.c,.p{stroke:#d4c2b1;}.c,.d,.p{stroke-miterlimit:10;}.c{stroke-width:9px;}.e{fill:#938d86;}.f{fill:#89837e;}.g{fill:#7f7673;}.h{fill:#a8a29d;}.i{fill:#e6e6e6;}.j{fill:#a8a1a0;}.k{fill:#817b77;}.l{fill:#aca5a2;}.m{fill:#706f63;}.n{fill:#b49c89;}.o{fill:#f9e6d7;}.p{stroke-width:6.01px;}.q{fill:#73aca5;}.r{fill:#88c8c8;}.s{fill:#6aafa5;}.t{fill:#b6a235;}.u,.w{stroke:none;}.w{fill:#d4c2b1;}</style></defs><g transform="translate(-25.644 -180.682)"><g transform="translate(25.644 182.909)"><path class="a" d="M410.757,197.759l-30.74-13.077L366.94,215.423l4.484,1.907c-3.342,7.349-9.084,13.392-17.093,17.961a53.956,53.956,0,0,1-26.721,6.916H268.591v-6.721H251.517V213.811H236.206v-4.454H206.7v4.454H191.387v21.674H173.251v6.721H109.177a53.954,53.954,0,0,1-26.721-6.916c-8.059-4.6-13.824-10.687-17.156-18.1l4.161-1.77L56.384,184.682l-30.74,13.077L38.721,228.5l5.058-2.151c5.373,12.218,14.481,22.061,27.09,29.255a76.994,76.994,0,0,0,34.034,9.865V456h23.384v-3.341H174.5c14.335,5.925,93.774.447,93.536,0h42.871V456H334.29V265.3a76.768,76.768,0,0,0,31.628-9.7c12.562-7.166,21.647-16.964,27.028-29.118l4.735,2.014ZM128.287,265.59h44.964v6.124h18.135v5.568h19.858v49.367H189.624v11.414H128.287V265.868l-.325-.278Zm0,91.959h61.337v11.414h21.621v51.964H190.83v8.352H128.287Zm121.748,63.378H230.824V368.963h21.714V357.549h58.367v71.73H250.775v-8.352Zm60.87-155.059v72.194H252.538V326.648H230.824V277.282h20.693v-5.568h17.074V265.59H311.23Z" transform="translate(-25.644 -184.682)"/></g><g transform="translate(128.844 269.478)"><rect class="b" width="19.487" height="148.656" transform="translate(84.628 1.578)"/><rect class="b" width="19.487" height="155.801" transform="translate(84.721)"/><rect class="b" width="19.487" height="182.619" transform="translate(184.289 64.585) rotate(90)"/><rect class="b" width="42.314" height="62.914" transform="translate(125.922 53.171) rotate(90)"/><rect class="b" width="51.222" height="11.135" transform="translate(68.482 175.845)"/></g><g transform="translate(201.78 335.083)"><g class="c" transform="translate(6.49 3.897)"><rect class="u" width="29.7" height="10.022"/><rect class="v" x="4.5" y="4.5" width="20.7" height="1.022"/></g><g class="d" transform="translate(-342 -458)"><path class="u" d="M342,458v17.816h42.871V458Zm37.3,15.033H347.568V460.871H379.3Z"/><path class="w" d="M 341.9999694824219 457.9999694824219 L 384.8707885742188 457.9999694824219 L 384.8707885742188 475.8164367675781 L 341.9999694824219 475.8164367675781 L 341.9999694824219 457.9999694824219 Z M 379.3031311035156 473.0325927734375 L 379.3031311035156 460.8706665039062 L 347.5675964355469 460.8706665039062 L 347.5675964355469 473.0325927734375 L 379.3031311035156 473.0325927734375 Z"/></g></g><g transform="translate(27.871 180.682)"><g transform="translate(341.296)"><path class="e" d="M674.963,202.591l-8.832-21.908,30.74,13.077Z" transform="translate(-653.054 -180.682)"/><path class="f" d="M664.553,220.032l-21.908,8.832,30.74,13.077Z" transform="translate(-642.644 -198.124)"/><path class="g" d="M664.553,202.591l-21.908,8.832,13.077-30.74Z" transform="translate(-642.644 -180.682)"/><path class="h" d="M681.994,213l8.832,21.908,13.077-30.74Z" transform="translate(-660.085 -191.093)"/><rect class="i" width="3.433" height="3.505" transform="translate(21.032 19.465) rotate(23.044)"/></g><g transform="translate(0)"><path class="e" d="M51.553,202.591l8.832-21.908-30.74,13.077Z" transform="translate(-29.644 -180.682)"/><path class="f" d="M61.963,220.032l21.908,8.832L53.131,241.94Z" transform="translate(-40.054 -198.124)"/><path class="g" d="M68.994,202.591,90.9,211.423l-13.077-30.74Z" transform="translate(-47.085 -180.682)"/><path class="h" d="M51.553,213l-8.832,21.908-13.077-30.74Z" transform="translate(-29.644 -191.093)"/><rect class="i" width="3.433" height="3.505" transform="translate(24.157 22.691) rotate(156.956)"/></g><path class="f" d="M401.11,246.783l-.086.121c-5.031,11.662-13.772,19.239-22.326,24.119a65.576,65.576,0,0,1-32.514,8.452l-5.505-.073.215-.2H136.56l.131.153-9.5.126a65.576,65.576,0,0,1-32.514-8.452c-8.555-4.88-17.3-12.457-22.326-24.119l-.087-.121L61.9,251.257c5.349,12.4,14.523,22.374,27.268,29.644a77.371,77.371,0,0,0,38.308,9.988H345.9a77.374,77.374,0,0,0,38.308-9.988c12.744-7.27,21.919-17.244,27.268-29.644Z" transform="translate(-43.939 -209.981)"/><path class="e" d="M398.266,238.182c-3.295,7.638-9.144,13.894-17.383,18.594a53.956,53.956,0,0,1-26.721,6.916H135.728a53.955,53.955,0,0,1-26.721-6.916c-8.24-4.7-14.088-10.957-17.383-18.594l-11.1,4.789.087.121c5.03,11.662,13.771,19.239,22.326,24.119a65.575,65.575,0,0,0,32.514,8.452l21.058-.278H333.559l20.88.278a65.575,65.575,0,0,0,32.514-8.452c8.554-4.88,17.295-12.457,22.326-24.119l.086-.121Z" transform="translate(-52.196 -206.168)"/><path class="j" d="M574.692,508.657V317.13L563,308.5V495.851Z" transform="translate(-266.047 -237.336)"/><path class="g" d="M553.692,495.851V308.5L542,318.522V508.657Z" transform="translate(-256.739 -237.336)"/><path class="f" d="M542,657.806h23.384L553.692,645Z" transform="translate(-256.739 -386.485)"/><path class="g" d="M172,508.878V317.908L183.692,309V496.073Z" transform="translate(-92.741 -237.557)"/><path class="j" d="M193,495.851V308.5l11.692,10.022V508.657Z" transform="translate(-102.049 -237.336)"/><path class="f" d="M195.384,657.806H172L183.692,645Z" transform="translate(-92.741 -386.485)"/><path class="e" d="M388.64,620H206.022L196,631.692H398.105Z" transform="translate(-103.379 -375.404)"/><path class="f" d="M398.105,641H196l10.022,11.692H389.2Z" transform="translate(-103.379 -384.712)"/><g transform="translate(147.607 50.802)"><rect class="e" width="36.23" height="95.34" transform="translate(0 36.23) rotate(-90)"/><path class="k" d="M312.71,289.992l-17.95,18.065V271.928Z" transform="translate(-294.76 -271.928)"/><path class="h" d="M433.76,289.992l17.95,18.065V271.928Z" transform="translate(-356.369 -271.928)"/></g><rect class="e" width="29.508" height="5.011" transform="translate(181.054 24.674)"/><g transform="translate(148.854 267.98)"><path class="l" d="M335.208,668.681V662h-2.251Z" transform="translate(-312.937 -662)"/><path class="m" d="M299.251,662,297,668.681V662" transform="translate(-297 -662)"/><path class="f" d="M317.02,662H299.251L297,668.681h22.271Z" transform="translate(-297 -662)"/></g><g transform="translate(220.12 267.98)"><path class="l" d="M463.208,668.681V662h-2.251Z" transform="translate(-440.937 -662)"/><path class="m" d="M427.251,662,425,668.681V662" transform="translate(-425 -662)"/><path class="f" d="M445.02,662H427.251L425,668.681h22.271Z" transform="translate(-425 -662)"/></g></g><g transform="translate(193.057 209.811)"><rect class="n" width="59.017" height="63.471" transform="translate(0.928)"/><rect class="o" width="51.222" height="56.233" transform="translate(0.928)"/><g class="c" transform="translate(0.557)"><rect class="u" width="60.131" height="63.471"/><rect class="v" x="4.5" y="4.5" width="51.131" height="54.471"/></g><rect class="n" width="58.835" height="28.395" transform="translate(0.37 207.116)"/><rect class="o" width="53.451" height="22.827" transform="translate(0.37 207.116)"/><g class="p" transform="translate(0 207.116)"><rect class="u" width="59.945" height="28.395"/><rect class="v" x="3.005" y="3.005" width="53.935" height="22.385"/></g></g><g transform="translate(27.871 180.682)"><g transform="translate(180.497 44.718)"><circle class="q" cx="15.311" cy="15.311" r="15.311"/><circle class="r" cx="12.527" cy="12.527" r="12.527" transform="translate(2.784 2.784)"/><circle class="q" cx="9.743" cy="9.743" r="9.743" transform="translate(5.568 5.568)"/><circle class="r" cx="6.96" cy="6.96" r="6.96" transform="translate(8.351 8.351)"/><circle class="s" cx="1.949" cy="1.949" r="1.949" transform="translate(13.362 13.362)"/><circle class="r" cx="1.392" cy="1.392" r="1.392" transform="translate(13.919 13.919)"/><circle class="t" cx="0.835" cy="0.835" r="0.835" transform="translate(14.476 14.476)"/></g><g transform="translate(173.908 154.4)"><g class="c" transform="translate(6.49 3.897)"><rect class="u" width="29.7" height="10.022"/><rect class="v" x="4.5" y="4.5" width="20.7" height="1.022"/></g><g class="d" transform="translate(-342 -458)"><path class="u" d="M342,458v17.816h42.871V458Zm37.3,15.033H347.568V460.871H379.3Z"/><path class="w" d="M 341.9999694824219 457.9999694824219 L 384.8707885742188 457.9999694824219 L 384.8707885742188 475.8164367675781 L 341.9999694824219 475.8164367675781 L 341.9999694824219 457.9999694824219 Z M 379.3031311035156 473.0325927734375 L 379.3031311035156 460.8706665039062 L 347.5675964355469 460.8706665039062 L 347.5675964355469 473.0325927734375 L 379.3031311035156 473.0325927734375 Z"/></g></g><g transform="translate(341.296)"><path class="e" d="M674.963,202.591l-8.832-21.908,30.74,13.077Z" transform="translate(-653.054 -180.682)"/><path class="f" d="M664.553,220.032l-21.908,8.832,30.74,13.077Z" transform="translate(-642.644 -198.124)"/><path class="g" d="M664.553,202.591l-21.908,8.832,13.077-30.74Z" transform="translate(-642.644 -180.682)"/><path class="h" d="M681.994,213l8.832,21.908,13.077-30.74Z" transform="translate(-660.085 -191.093)"/><rect class="i" width="3.433" height="3.505" transform="translate(21.032 19.465) rotate(23.044)"/></g><g transform="translate(0)"><path class="e" d="M51.553,202.591l8.832-21.908-30.74,13.077Z" transform="translate(-29.644 -180.682)"/><path class="f" d="M61.963,220.032l21.908,8.832L53.131,241.94Z" transform="translate(-40.054 -198.124)"/><path class="g" d="M68.994,202.591,90.9,211.423l-13.077-30.74Z" transform="translate(-47.085 -180.682)"/><path class="h" d="M51.553,213l-8.832,21.908-13.077-30.74Z" transform="translate(-29.644 -191.093)"/><rect class="i" width="3.433" height="3.505" transform="translate(24.157 22.691) rotate(156.956)"/></g><path class="f" d="M401.11,246.783l-.086.121c-5.031,11.662-13.772,19.239-22.326,24.119a65.576,65.576,0,0,1-32.514,8.452l-5.505-.073.215-.2H136.56l.131.153-9.5.126a65.576,65.576,0,0,1-32.514-8.452c-8.555-4.88-17.3-12.457-22.326-24.119l-.087-.121L61.9,251.257c5.349,12.4,14.523,22.374,27.268,29.644a77.371,77.371,0,0,0,38.308,9.988H345.9a77.374,77.374,0,0,0,38.308-9.988c12.744-7.27,21.919-17.244,27.268-29.644Z" transform="translate(-43.939 -209.981)"/><path class="e" d="M398.266,238.182c-3.295,7.638-9.144,13.894-17.383,18.594a53.956,53.956,0,0,1-26.721,6.916H135.728a53.955,53.955,0,0,1-26.721-6.916c-8.24-4.7-14.088-10.957-17.383-18.594l-11.1,4.789.087.121c5.03,11.662,13.771,19.239,22.326,24.119a65.575,65.575,0,0,0,32.514,8.452l21.058-.278H333.559l20.88.278a65.575,65.575,0,0,0,32.514-8.452c8.554-4.88,17.295-12.457,22.326-24.119l.086-.121Z" transform="translate(-52.196 -206.168)"/><path class="j" d="M574.692,508.657V317.13L563,308.5V495.851Z" transform="translate(-266.047 -237.336)"/><path class="g" d="M553.692,495.851V308.5L542,318.522V508.657Z" transform="translate(-256.739 -237.336)"/><path class="f" d="M542,657.806h23.384L553.692,645Z" transform="translate(-256.739 -386.485)"/><path class="g" d="M172,508.878V317.908L183.692,309V496.073Z" transform="translate(-92.741 -237.557)"/><path class="j" d="M193,495.851V308.5l11.692,10.022V508.657Z" transform="translate(-102.049 -237.336)"/><path class="f" d="M195.384,657.806H172L183.692,645Z" transform="translate(-92.741 -386.485)"/><path class="e" d="M388.64,620H206.022L196,631.692H398.105Z" transform="translate(-103.379 -375.404)"/><path class="f" d="M398.105,641H196l10.022,11.692H389.2Z" transform="translate(-103.379 -384.712)"/><g transform="translate(147.607 50.802)"><rect class="e" width="36.23" height="95.34" transform="translate(0 36.23) rotate(-90)"/><path class="k" d="M312.71,289.992l-17.95,18.065V271.928Z" transform="translate(-294.76 -271.928)"/><path class="h" d="M433.76,289.992l17.95,18.065V271.928Z" transform="translate(-356.369 -271.928)"/></g><rect class="e" width="29.508" height="5.011" transform="translate(181.054 24.674)"/><g transform="translate(148.854 267.98)"><path class="l" d="M335.208,668.681V662h-2.251Z" transform="translate(-312.937 -662)"/><path class="m" d="M299.251,662,297,668.681V662" transform="translate(-297 -662)"/><path class="f" d="M317.02,662H299.251L297,668.681h22.271Z" transform="translate(-297 -662)"/></g><g transform="translate(220.12 267.98)"><path class="l" d="M463.208,668.681V662h-2.251Z" transform="translate(-440.937 -662)"/><path class="m" d="M427.251,662,425,668.681V662" transform="translate(-425 -662)"/><path class="f" d="M445.02,662H427.251L425,668.681h22.271Z" transform="translate(-425 -662)"/></g><rect class="n" width="59.017" height="63.471" transform="translate(166.114 29.129)"/><rect class="o" width="51.222" height="56.233" transform="translate(166.114 29.129)"/><g class="c" transform="translate(165.743 29.129)"><rect class="u" width="60.131" height="63.471"/><rect class="v" x="4.5" y="4.5" width="51.131" height="54.471"/></g><rect class="n" width="58.835" height="28.395" transform="translate(165.556 236.245)"/><rect class="o" width="53.451" height="22.827" transform="translate(165.556 236.245)"/><g class="p" transform="translate(165.186 236.245)"><rect class="u" width="59.945" height="28.395"/><rect class="v" x="3.005" y="3.005" width="53.935" height="22.385"/></g><g transform="translate(180.497 44.718)"><circle class="q" cx="15.311" cy="15.311" r="15.311"/><circle class="r" cx="12.527" cy="12.527" r="12.527" transform="translate(2.784 2.784)"/><circle class="q" cx="9.743" cy="9.743" r="9.743" transform="translate(5.568 5.568)"/><circle class="r" cx="6.96" cy="6.96" r="6.96" transform="translate(8.351 8.351)"/><circle class="s" cx="1.949" cy="1.949" r="1.949" transform="translate(13.362 13.362)"/><circle class="r" cx="1.392" cy="1.392" r="1.392" transform="translate(13.919 13.919)"/><circle class="t" cx="0.835" cy="0.835" r="0.835" transform="translate(14.476 14.476)"/></g></g></g></svg>