<svg xmlns="http://www.w3.org/2000/svg" width="189.43" height="197.022" viewBox="0 0 189.43 197.022"><defs><style>.a{fill:#fff;}.b{fill:#5962a4;}.c{fill:none;stroke:#fdc500;stroke-linecap:round;stroke-width:2px;}</style></defs><g transform="translate(-93 -371.795)"><g transform="translate(129 371.795)"><g transform="translate(0 0)"><path class="a" d="M304.7,273.417c-3.757,3.777-10.976,4.336-11.931,7.453a31.073,31.073,0,0,1-5.108-4.65c-5.889-6.9-8.3-1.381-8.986,2.782-.711,4.142-6.224-1.391-9.7-2.082-3.452-.7,1.056-7.25,3.473-8.986,1.614-1.168,3.209-4.356,4.214-8.814,6.113.1,13.576-8.651,19.353-3.087C302.433,262.217,309.276,268.837,304.7,273.417Z" transform="translate(-267.72 -173.174)"/><path class="a" d="M389.25,400.667c-4.813,4.569-5.726,9.839-1.147,9.159s10.063,0,6.62,3.178c-3.432,3.209-16.459,9.179-21.485,8.925-5.036-.224-15.1,1.614-17.393,3.2-2.3,1.614-9.6-5.239-12.347-2.945a14.459,14.459,0,0,1-12.124,3.412c-5.483-.914-8.235,2.285-11.2,1.6-2.986-.68-3.209,7.321-6.865,6.864-3.675-.457-4.8-5.026-11.453-2.285-6.621,2.742-9.362,8.915-11.423,6.4-3.513-4.285,15.088-21.729,19.668-24.238s12.133,1.584,17.149-2.295c5.037-3.889,5.27-6.407-1.36-3.889s-10.306-2.285-16.236-2.285c-5.95,0-5.047-5.026-9.169-2.061-4.1,2.975-14.632-3.879-5.93-6.407,8.682-2.518,15.079-6.853,14.865-10.519s-8.691-2.965-9.149-5.95c-.457-2.955,6.174-6.407,4.57-9.606s4.356-4.792,4.813-2.518c.447,2.294,14.621,2.741,15.778-.69,1.137-3.422-.68-10.286,1.361-13.941,2.072-3.666.457-4.123-4.1-5.727-4.579-1.6-6.184-5.483-2.518-9.605,3.645-4.112,1.137-10.063-4.122-4.569s-21.73,5.483-22.186,2.061c-.457-3.442,7.991-10.763,5.473-15.566-2.5-4.793,1.838-10.3-1.127-10.743s-.69,10.743-8.915,12.113-2.985-11.21-6.417-9.372c-3.432,1.817-10.986,8.235-10.986,3.889s13.271-5.037,12.824-9.606c-.477-4.569-9.392-1.817-8.235-8.245,1.138-6.407,11.647-10.743,5.707-11.423s-15.779-5.5-11.21-9.169c4.59-3.645,7.107,1.391,9.4,3.442,2.264,2.051,5.24-.68,3.859-4.346-1.361-3.655,7.107-6.173,6.874-10.519s2.528-14.408,9.606-13.037c7.1,1.371,13.728,2.051,16.7-.234s3.422-9.159,6.854-6.184-2.731,5.95-2.295,9.169c.477,3.188-7.768,11.2-11.647,12.8s.68,7.321,5.25,5.036c4.59-2.294,28.593-2.528,28.593,1.361s-6.407,23.344-11.89,27.009c-5.493,3.635-8.915,10.286-5.493,10.052s10.062-2.741,13.951,2.285,8.935,1.838,10.307,7.777,2.518,16.927,10.3,18.764c7.758,1.817,12.348,16.459,11.656,18.754s2.508,8.011,5.027,8.458c2.518.467-2.265,4.355.233,8.458,2.518,4.143,5.95,4.579,7.544.924,1.615-3.665,16.713,1.148,16.256,8C401.607,392.666,394.043,396.088,389.25,400.667Z" transform="translate(-248.645 -246.203)"/><path class="a" d="M280.526,247.6c2.975,2.985-4.112,13.505-10.3,13.738C265.631,261.505,277.551,244.639,280.526,247.6Z" transform="translate(-254.293 -236.573)"/></g><g transform="translate(0 0)"><path class="a" d="M304.7,273.417c-3.757,3.777-10.976,4.336-11.931,7.453a31.073,31.073,0,0,1-5.108-4.65c-5.889-6.9-8.3-1.381-8.986,2.782-.711,4.142-6.224-1.391-9.7-2.082-3.452-.7,1.056-7.25,3.473-8.986,1.614-1.168,3.209-4.356,4.214-8.814,6.113.1,13.576-8.651,19.353-3.087C302.433,262.217,309.276,268.837,304.7,273.417Z" transform="translate(-267.72 -173.174)"/><path class="a" d="M389.25,400.667c-4.813,4.569-5.726,9.839-1.147,9.159s10.063,0,6.62,3.178c-3.432,3.209-16.459,9.179-21.485,8.925-5.036-.224-15.1,1.614-17.393,3.2-2.3,1.614-9.6-5.239-12.347-2.945a14.459,14.459,0,0,1-12.124,3.412c-5.483-.914-8.235,2.285-11.2,1.6-2.986-.68-3.209,7.321-6.865,6.864-3.675-.457-4.8-5.026-11.453-2.285-6.621,2.742-9.362,8.915-11.423,6.4-3.513-4.285,15.088-21.729,19.668-24.238s12.133,1.584,17.149-2.295c5.037-3.889,5.27-6.407-1.36-3.889s-10.306-2.285-16.236-2.285c-5.95,0-5.047-5.026-9.169-2.061-4.1,2.975-14.632-3.879-5.93-6.407,8.682-2.518,15.079-6.853,14.865-10.519s-8.691-2.965-9.149-5.95c-.457-2.955,6.174-6.407,4.57-9.606s4.356-4.792,4.813-2.518c.447,2.294,14.621,2.741,15.778-.69,1.137-3.422-.68-10.286,1.361-13.941,2.072-3.666.457-4.123-4.1-5.727-4.579-1.6-6.184-5.483-2.518-9.605,3.645-4.112,1.137-10.063-4.122-4.569s-21.73,5.483-22.186,2.061c-.457-3.442,7.991-10.763,5.473-15.566-2.5-4.793,1.838-10.3-1.127-10.743s-.69,10.743-8.915,12.113-2.985-11.21-6.417-9.372c-3.432,1.817-10.986,8.235-10.986,3.889s13.271-5.037,12.824-9.606c-.477-4.569-9.392-1.817-8.235-8.245,1.138-6.407,11.647-10.743,5.707-11.423s-15.779-5.5-11.21-9.169c4.59-3.645,7.107,1.391,9.4,3.442,2.264,2.051,5.24-.68,3.859-4.346-1.361-3.655,7.107-6.173,6.874-10.519s2.528-14.408,9.606-13.037c7.1,1.371,13.728,2.051,16.7-.234s3.422-9.159,6.854-6.184-2.731,5.95-2.295,9.169c.477,3.188-7.768,11.2-11.647,12.8s.68,7.321,5.25,5.036c4.59-2.294,28.593-2.528,28.593,1.361s-6.407,23.344-11.89,27.009c-5.493,3.635-8.915,10.286-5.493,10.052s10.062-2.741,13.951,2.285,8.935,1.838,10.307,7.777,2.518,16.927,10.3,18.764c7.758,1.817,12.348,16.459,11.656,18.754s2.508,8.011,5.027,8.458c2.518.467-2.265,4.355.233,8.458,2.518,4.143,5.95,4.579,7.544.924,1.615-3.665,16.713,1.148,16.256,8C401.607,392.666,394.043,396.088,389.25,400.667Z" transform="translate(-248.645 -246.203)"/><path class="a" d="M280.526,247.6c2.975,2.985-4.112,13.505-10.3,13.738C265.631,261.505,277.551,244.639,280.526,247.6Z" transform="translate(-254.293 -236.573)"/></g></g><path class="b" d="M325.22,278.161a31.075,31.075,0,0,1-5.108-4.65c-5.889-6.9-8.3-1.381-8.986,2.782-.711,4.143-6.224-1.391-9.7-2.082-3.452-.7,1.056-7.25,3.473-8.986,1.614-1.168,3.209-4.356,4.214-8.814a5.42,5.42,0,0,1-1.919-.335c-6.407-2.5-15.332-2.518-15.555,3.2s7.087,3.666,7.311,7.311c.233,3.676-7.311,2.752-12.581,6.417-5.249,3.645-10.966-2.528-16.479.234-5.483,2.731,5.96,5.94,1.838,11.656s.233,5.5,7.1,10.987-4.123,6.864-4.123,13.027c0,6.184-8.478,5.95-10.3,10.083-1.817,4.1,7.321,12.347,15.332,12.347,5.717,0,18.988-3.665,26.776-10.987,7.768-7.311,11.89-.233,18.977-3.889s2.732-30.421,0-35.9A3.018,3.018,0,0,1,325.22,278.161Z" transform="translate(-171.175 201.331)"/><line class="c" x1="9.313" y2="22.506" transform="translate(234.889 506.87)"/><line class="c" x1="13.97" y1="21.73" transform="translate(234.889 536.362)"/><line class="c" x1="24.835" y2="22.506" transform="translate(198.413 544.899)"/></g></svg>