<svg xmlns="http://www.w3.org/2000/svg" width="33.881" height="24.261" viewBox="0 0 33.881 24.261"><defs><style>.a{fill:none;stroke-miterlimit:10;}.b,.c{stroke:none;}.c{fill:#fdc500;}</style></defs><g class="a" transform="translate(-105.839 -159.572)"><path class="b" d="M139.72,160.722h0l-2.7-1.15h0l-1.15,2.7h0l.394.168a3.486,3.486,0,0,1-1.5,1.58,4.746,4.746,0,0,1-2.351.608h-5.192v-.591h-1.5v-1.907h-1.347v-.392h-2.6v.392H120.42v1.907h-1.6v.591h-5.637a4.745,4.745,0,0,1-2.351-.608,3.482,3.482,0,0,1-1.509-1.592l.366-.156h0l-1.15-2.7h0l-2.7,1.15h0l1.15,2.7h0l.445-.189a5.484,5.484,0,0,0,2.383,2.574,6.805,6.805,0,0,0,2.994.869v16.762l.061-.066-.061.066h2.057l5.878.03v.362h4.506v-.362l5.682-.03h2.057V166.666a6.807,6.807,0,0,0,2.782-.855,5.486,5.486,0,0,0,2.378-2.562l.417.177h0l1.15-2.7h0Zm-17.552,19.634h-1.8v.735h-5.5v-6.31h5.4v1h1.9Zm0-8.294h-1.9v1h-5.4v-6.351l-.029-.024h3.984v.53h0v.009h1.6v.49h1.747Zm8.768,9.029h-5.29v-.735H123.89v-4.572h1.91v-1h5.135Zm0-14.376v6.351H125.8v-1h-1.91v-4.343h1.82v-.49h1.5v-.009h0v-.53h3.751Z"/><path class="c" d="M 121.9203796386719 163.6345520019531 L 121.9203796386719 164.0412445068359 L 121.9203796386719 165.5412445068359 L 120.4203796386719 165.5412445068359 L 120.3248443603516 165.5412445068359 L 120.3248443603516 165.7286224365234 L 120.4203796386719 165.7286224365234 L 121.9203796386719 165.7286224365234 L 121.9203796386719 166.2184753417969 L 122.1674041748047 166.2184753417969 L 122.3899688720703 166.2184753417969 L 123.8899688720703 166.2184753417969 L 124.2104568481445 166.2184753417969 L 124.2104568481445 165.7286224365234 L 125.7104568481445 165.7286224365234 L 125.7125015258789 165.7286224365234 L 125.7125091552734 165.5412445068359 L 125.7104568481445 165.5412445068359 L 124.2104568481445 165.5412445068359 L 124.2104568481445 164.0412445068359 L 124.2104568481445 163.6345520019531 L 123.2673797607422 163.6345520019531 L 121.9203796386719 163.6345520019531 M 121.7653656005859 173.5615692138672 L 121.7653656005859 174.2841796875 L 122.1674041748047 174.2841796875 L 122.3899688720703 174.2841796875 L 123.8899688720703 174.2841796875 L 124.3002777099609 174.2841796875 L 124.3002777099609 173.5615692138672 L 123.8899688720703 173.5615692138672 L 123.6674041748047 173.5615692138672 L 122.1674041748047 173.5615692138672 L 121.7653656005859 173.5615692138672 M 121.8713684082031 181.8557586669922 L 121.8713684082031 181.9772033691406 L 122.246940612793 181.9791259765625 L 122.246940612793 182.3335266113281 L 123.7532348632812 182.3335266113281 L 123.7532348632812 181.9793853759766 L 124.1450805664062 181.9773101806641 L 124.1450805664062 181.8557586669922 L 123.8899688720703 181.8557586669922 L 123.6674041748047 181.8557586669922 L 122.1674041748047 181.8557586669922 L 121.8713684082031 181.8557586669922 M 108.5431976318359 159.5719909667969 L 108.5431976318359 159.5720825195312 L 108.54345703125 159.5719909667969 L 108.5432891845703 159.5723419189453 L 109.6935729980469 162.2761993408203 L 109.69384765625 162.2762908935547 L 109.6936645507812 162.2763671875 L 109.3276824951172 162.4320983886719 C 109.6208190917969 163.083984375 110.1278991699219 163.6197662353516 110.8369903564453 164.0241851806641 C 111.547119140625 164.4232635498047 112.34765625 164.6327056884766 113.1618957519531 164.6327056884766 C 113.1704711914062 164.6327056884766 113.17919921875 164.6326751708984 113.1877899169922 164.6326293945312 L 118.8248443603516 164.6326293945312 L 118.8248443603516 164.0412445068359 L 120.4203796386719 164.0412445068359 L 120.4203796386719 162.1345520019531 L 120.4530181884766 162.1345520019531 L 121.7673797607422 162.1345520019531 L 121.7673797607422 161.7426300048828 L 124.3633651733398 161.7426300048828 L 124.3633651733398 162.1345520019531 L 124.9593048095703 162.1345520019531 L 125.6450805664062 162.1345520019531 L 125.7104568481445 162.1345520019531 L 125.7104568481445 164.0412445068359 L 127.2124710083008 164.0412445068359 L 127.2124710083008 164.0413360595703 L 127.2125549316406 164.0412445068359 L 127.2125549316406 164.6326293945312 L 132.4046936035156 164.6326293945312 C 132.413330078125 164.6326751708984 132.4219360351562 164.6327056884766 132.4305877685547 164.6327056884766 C 133.2447814941406 164.6327056884766 134.04541015625 164.4231414794922 134.7555084228516 164.0241851806641 C 135.4600219726562 163.622314453125 135.9653625488281 163.0906677246094 136.25927734375 162.4441375732422 L 135.8649749755859 162.2763671875 L 135.8648681640625 162.2763671875 L 135.8648681640625 162.2762908935547 L 137.0152587890625 159.5721588134766 L 137.0152587890625 159.5719909667969 L 137.0153503417969 159.5720825195312 L 137.0153503417969 159.5719909667969 L 137.0153503417969 159.5720825195312 L 139.7193756103516 160.7223663330078 L 139.7197265625 160.7221832275391 L 139.7196350097656 160.7224426269531 L 139.7195434570312 160.7224426269531 L 138.5692596435547 163.4265594482422 L 138.5692596435547 163.4267425537109 L 138.1522521972656 163.2493896484375 C 137.678955078125 164.3187255859375 136.8796081542969 165.1807250976562 135.7744445800781 165.8111572265625 C 134.9175720214844 166.294677734375 133.9681396484375 166.5848083496094 132.9922943115234 166.6658477783203 L 132.9922943115234 183.4416046142578 L 130.9350891113281 183.4416046142578 L 125.2532348632812 183.4715118408203 L 125.2532348632812 183.8335266113281 L 120.746940612793 183.8335266113281 L 120.746940612793 183.4715118408203 L 114.8690948486328 183.4416046142578 L 112.8118743896484 183.4416046142578 L 112.8724060058594 183.3753662109375 L 112.8118743896484 183.4416046142578 L 112.8118743896484 166.6800842285156 C 111.7617797851562 166.6258087158203 110.7366943359375 166.3296051025391 109.8180541992188 165.8111572265625 C 108.7085876464844 165.1783447265625 107.9073181152344 164.3122253417969 107.4347076416016 163.2373199462891 L 106.9894561767578 163.4266510009766 L 106.9894561767578 163.4265594482422 L 105.8390808105469 160.7224426269531 L 105.8389892578125 160.7221832275391 L 105.83935546875 160.7223663330078 L 108.5431060791016 159.5721588134766 L 108.5431976318359 159.5719909667969 Z M 114.8405151367188 166.6898651123047 L 114.8690948486328 166.7143096923828 L 114.8690948486328 173.0657196044922 L 120.2653656005859 173.0657196044922 L 120.2653656005859 172.0615692138672 L 122.1674041748047 172.0615692138672 L 122.1674041748047 167.7184753417969 L 120.4530181884766 167.7184753417969 L 120.4203796386719 167.7184753417969 L 120.4203796386719 167.2286224365234 L 118.8248443603516 167.2286224365234 L 118.8248443603516 167.2197418212891 L 118.8248443603516 166.6898651123047 L 114.8405151367188 166.6898651123047 Z M 130.9350891113281 173.0657196044922 L 130.9350891113281 166.7143096923828 L 130.9635772705078 166.6898651123047 L 127.2125549316406 166.6898651123047 L 127.2125549316406 167.2197418212891 L 127.2124710083008 167.2196502685547 L 127.2124710083008 167.2286224365234 L 125.7104568481445 167.2286224365234 L 125.7104568481445 167.7184753417969 L 125.6450805664062 167.7184753417969 L 123.8899688720703 167.7184753417969 L 123.8899688720703 172.0615692138672 L 125.8002777099609 172.0615692138672 L 125.8002777099609 173.0657196044922 L 130.9350891113281 173.0657196044922 Z M 122.1674041748047 180.3557586669922 L 122.1674041748047 175.7841796875 L 120.2653656005859 175.7841796875 L 120.2653656005859 174.7801055908203 L 114.8690948486328 174.7801055908203 L 114.8690948486328 181.0904541015625 L 120.3713684082031 181.0904541015625 L 120.3713684082031 180.3557586669922 L 120.4039306640625 180.3557586669922 L 122.1674041748047 180.3557586669922 Z M 130.9350891113281 181.0904541015625 L 130.9350891113281 174.7801055908203 L 125.8002777099609 174.7801055908203 L 125.8002777099609 175.7841796875 L 123.8899688720703 175.7841796875 L 123.8899688720703 180.3557586669922 L 125.106330871582 180.3557586669922 L 125.5799789428711 180.3557586669922 L 125.6450805664062 180.3557586669922 L 125.6450805664062 181.0904541015625 L 130.9350891113281 181.0904541015625 Z"/></g></svg>